<?xml version="1.0" encoding="UTF-8"?>
<svg width="96px" height="26px" viewBox="0 0 96 26" version="1.1" xmlns="http://www.w3.org/2000/svg"
     xmlns:xlink="http://www.w3.org/1999/xlink">
    <!-- Generator: Sketch 61 (89581) - https://sketch.com -->
    <title>toptal_logo_befd31</title>
    <desc>Created with Sketch.</desc>
    <g id="toptal_logo_befd31" stroke="none" stroke-width="1" fill="none" fill-rule="evenodd">
        <path d="M59.8950392,8.52637076 C58.618799,7.12793734 57.0234987,6.40835509 55.1498695,6.40835509 C53.3441253,6.40835509 51.5587467,7.67101828 50.4522193,8.91331593 L50.4590078,6.5848564 L47.091906,6.57806789 L47.0511749,25.6877285 L47.0511749,25.9389034 L50.4386423,25.9456919 L50.4522193,19.9718016 C51.4772846,21.1190601 53.0929504,21.7911227 54.891906,21.7979112 C56.8741514,21.7979112 58.5373368,21.091906 59.8407311,19.7002611 C61.1577023,18.3018277 61.8229765,16.3263708 61.8298175,14.0590078 C61.8365535,11.7441253 61.1848564,9.88407311 59.8950392,8.52637076 Z M54.3420366,9.55822454 C55.489295,9.55822454 56.4600522,9.9926893 57.227154,10.8412533 C58.0146214,11.6626632 58.4219321,12.7420366 58.4151436,14.0522193 C58.4083551,15.3691906 58.0214099,16.5503916 57.213577,17.4057441 C56.4396867,18.227154 55.475718,18.6480418 54.3284595,18.6480418 C53.2015666,18.6480418 52.2579634,18.2339426 51.443342,17.3989556 C50.6422977,16.5368146 50.248564,15.3556136 50.248564,14.0386423 C50.2553525,12.735248 50.6558747,11.6558747 51.4501305,10.8276762 C52.2511749,9.97232376 53.1947781,9.55822454 54.3284595,9.55822454 L54.3420366,9.55822454 L54.3420366,9.55822454 Z"
              id="Shape" fill="#3a649e"></path>
        <path d="M63.5472585,9.43603133 L63.5336815,17.5007833 C63.526893,19.2386423 64.0088773,20.4809399 64.9456919,21.1869452 C65.5295039,21.6281984 66.2762402,21.8522193 67.1587467,21.8522193 C67.8375979,21.8522193 68.9033943,21.5806789 68.9033943,21.5806789 L68.5979112,18.6412533 C68.5979112,18.6412533 67.8240209,18.8924282 67.4438642,18.6208877 C67.0840731,18.3629243 66.9075718,17.8198433 66.9075718,16.9916449 L66.9211488,9.43603133 L70.0574413,9.44281984 L70.0642298,6.63916449 L66.9279373,6.63237598 L66.9347258,2.60678851 L63.5608355,2.6 L63.554047,6.62558747 L60.7164491,6.61879896 L63.5472585,9.43603133 Z"
              id="Path" fill="#3a649e"></path>
        <polygon id="Path" fill="#3a649e"
                 points="35.8093995 2.38955614 19.1436031 2.38955614 19.1368146 5.7227154 25.7963446 5.7227154 25.7691906 21.3091384 25.7691906 21.6146214 29.2924282 21.6214099 29.2788512 5.72950392 35.8093995 5.7227154"></polygon>
        <path d="M17.8605744,10.9159269 L6.96501305,-5.32907052e-14 L4.42610966,2.51853786 L8.13263708,6.23185379 L5.15143483e-14,14.3373368 L10.9362924,25.2872063 L13.4344648,22.7958225 L9.69399478,19.048564 L17.8605744,10.9159269 Z M7.43342037,16.2788512 C7.35874674,16.2992167 7.28407311,16.2992167 7.20939948,16.2788512 C7.13472585,16.2584856 7.07362924,16.2245431 6.93785901,16.0887728 L5.46475196,14.6088773 C5.33577023,14.4798956 5.29503916,14.4120104 5.27467363,14.3373368 C5.25430809,14.2626632 5.25430809,14.1879896 5.27467363,14.1133159 C5.29503916,14.0386423 5.32898172,13.9775457 5.46475196,13.8417755 L10.108094,9.20522193 C10.2370757,9.07624021 10.3049608,9.03550914 10.3796345,9.02193211 C10.4543081,9.00156658 10.5289817,9.00156658 10.6036554,9.02193211 C10.678329,9.04229765 10.7394256,9.07624021 10.8751958,9.21201044 L12.3483029,10.691906 C12.4772846,10.8208877 12.5180157,10.8887728 12.5315927,10.9634465 C12.5519582,11.0381201 12.5519582,11.1127937 12.5315927,11.1874674 C12.5112272,11.262141 12.4772846,11.3232376 12.3415144,11.4590078 L7.69817232,16.0955614 C7.5691906,16.2245431 7.50809399,16.2516971 7.43342037,16.2788512 Z"
              id="Shape" fill="#3a649e"></path>
        <path d="M43.629765,8.61462141 C42.2516971,7.18903394 40.3712794,6.40156658 38.443342,6.45587467 C36.4950392,6.45587467 34.7775457,7.14151436 33.3451697,8.4924282 C31.8924282,9.85691906 31.1524804,11.7441253 31.1524804,14.1133159 C31.1524804,16.4825065 31.8856397,18.3697128 33.3315927,19.7409922 C34.7707572,21.0986945 36.4882507,21.7911227 38.4365535,21.7979112 C38.5112272,21.8046997 38.5859008,21.8046997 38.6605744,21.8046997 C40.4798956,21.8046997 42.2856397,21.0240209 43.616188,19.6663185 C44.5869452,18.6684073 45.7477807,16.9033943 45.7545988,14.1472585 C45.7613577,11.3911227 44.6005222,9.61932115 43.629765,8.61462141 M42.5639687,14.14047 C42.5571802,15.5117493 42.156658,16.6454308 41.3556136,17.5143603 C40.5613577,18.3765013 39.570235,18.8109661 38.416188,18.8109661 C37.2825065,18.8041775 36.2981723,18.3697128 35.5039164,17.5007833 C34.7300261,16.6522193 34.3295039,15.5185379 34.3295039,14.126893 C34.3295039,12.735248 34.7300261,11.6015666 35.510705,10.7530026 C36.3049608,9.89086162 37.289295,9.45639687 38.4229765,9.45639687 C39.5770235,9.45639687 40.5681462,9.89765013 41.3624021,10.7665796 C42.1634465,11.6287206 42.5707572,12.7624021 42.5639687,14.14047"
              id="Shape" fill="#3a649e"></path>
        <path d="M73.9065274,11.8120104 C73.9065274,10.9498695 74.3545692,9.06266319 76.845953,9.06266319 C77.7284595,9.06266319 78.2308094,9.3613577 78.6516971,9.71436031 C79.0590078,10.0537859 79.2626632,10.8887728 79.2626632,11.581201 L79.2626632,11.9070496 L75.1488251,12.5519582 C71.8903394,13.0475196 70.0234987,14.7989556 70.0098519,17.3650131 C70.0031332,18.6955614 70.491906,19.8360313 71.4083551,20.6710183 C72.3180157,21.4924282 73.5535248,21.9336815 75.0198433,21.9336815 C76.8663185,21.9336815 78.2511749,21.2684073 79.2422977,19.8971279 C79.2490862,20.4809399 79.2490862,21.064752 79.2490862,21.6078329 L79.2490862,21.6078329 L82.6772846,21.6078329 L82.6977146,11.7509138 C82.7044386,10.1420366 82.1749347,8.58746736 81.1430809,7.73211488 C80.1180157,6.89033943 78.7806789,6.45587467 76.845953,6.45587467 L76.818799,6.45587467 C75.3389034,6.45587467 73.7707572,6.84960836 72.7185379,7.75926893 C71.4762402,8.83185379 70.8652742,10.5357702 70.8652742,11.8527415 L73.9065274,11.8120104 Z M75.4610966,18.9806789 C74.245953,18.9738903 73.4516971,18.2814621 73.4584425,17.2156658 C73.4652742,16.1091384 74.232376,15.4642298 75.8819843,15.1859008 L79.2626632,14.6156658 L79.2626632,14.6496084 C79.2558747,17.2020888 77.694517,18.9806789 75.4746736,18.9806789 L75.4610966,18.9806789 Z"
              id="Shape" fill="#3a649e"></path>
        <polygon id="Path" fill="#3a649e"
                 points="84.326893 2.61357702 84.2997389 21.5060052 84.2997389 21.5942559 87.3342037 21.6010444 87.3681462 2.70182768 87.3681462 2.62036554"></polygon>
        <path d="M90.0631854,19.3336815 C90.0631854,18.7091384 90.2804178,18.1660574 90.7284595,17.7180157 C91.1765013,17.2699739 91.7127937,17.045953 92.3305483,17.045953 C92.9550914,17.045953 93.5049608,17.2699739 93.9462141,17.7180157 C94.3942559,18.1660574 94.6182768,18.7023499 94.6182768,19.3336815 C94.6182768,19.9718016 94.3942559,20.5013055 93.9462141,20.9357702 C93.4981723,21.383812 92.9618799,21.6010444 92.3305483,21.6010444 C91.6992167,21.6010444 91.1629243,21.383812 90.7284595,20.9357702 C90.2872063,20.5013055 90.0631854,19.9718016 90.0631854,19.3336815 Z M90.443342,19.3336815 C90.443342,19.8631854 90.6198433,20.3180157 90.9932115,20.6981723 C91.3597911,21.064752 91.8078329,21.2548303 92.3441253,21.2548303 C92.8736292,21.2548303 93.321671,21.064752 93.6882507,20.6981723 C94.0548303,20.3248042 94.2449086,19.8767624 94.2449086,19.3336815 C94.2449086,18.797389 94.0548303,18.3493473 93.6882507,17.9827676 C93.321671,17.6093995 92.8736292,17.4193211 92.3441253,17.4193211 C91.8146214,17.4193211 91.3665796,17.6093995 91,17.9827676 C90.6266319,18.3493473 90.443342,18.797389 90.443342,19.3336815 Z M92.8804178,20.5759791 L92.2694517,19.4898172 L91.8553525,19.4898172 L91.8553525,20.5759791 L91.4819843,20.5759791 L91.4819843,18.0845953 L92.4934726,18.0845953 C92.9958225,18.0845953 93.294517,18.3832898 93.294517,18.7906005 C93.294517,19.1368146 93.0365535,19.4015666 92.6835509,19.4694517 L93.3013055,20.5691906 L92.8804178,20.5691906 L92.8804178,20.5759791 L92.8804178,20.5759791 Z M91.8553525,18.4172324 L91.8553525,19.1775457 L92.4391645,19.1775457 C92.7650131,19.1775457 92.9211488,19.0553525 92.9211488,18.8041775 C92.9211488,18.5462141 92.7582245,18.4172324 92.4391645,18.4172324 L91.8553525,18.4172324 Z"
              id="Shape" fill="#3a649e"></path>
    </g>
</svg>
