<?xml version="1.0" encoding="utf-8"?><svg width="112" height="84" viewBox="0 0 112 84" xmlns="http://www.w3.org/2000/svg" xmlns:xlink="http://www.w3.org/1999/xlink"><svg id="android" data-name="Layer 1" viewBox="0 0 1274.37 718" width="28" height="15.78" x="28" xmlns="http://www.w3.org/2000/svg"><defs><style>.acls-1{fill:#3ddc84}</style></defs><path class="acls-1" d="M930.77 536.42a53.07 53.07 0 1 1 53.06-53.08 53.14 53.14 0 0 1-53.06 53.08m-586.54 0a53.07 53.07 0 1 1 53.06-53.08 53.13 53.13 0 0 1-53.06 53.08M949.8 216.77l106.05-183.68A22.06 22.06 0 1 0 1017.64 11L910.25 197c-82.12-37.48-174.35-58.35-272.76-58.35S446.86 159.55 364.74 197L257.36 11a22.06 22.06 0 1 0-38.22 22.06L325.2 216.77C143.09 315.82 18.53 500.18.31 718h1274.38c-18.24-217.82-142.79-402.18-324.89-501.23"/></svg><svg viewBox="15.5 15.5 224.5 224.5" width="28" height="28" id="chrome" y="55.86" xmlns="http://www.w3.org/2000/svg"><defs><radialGradient cy="0" cx=".5" id="bc"><stop stop-color="#f06b59"/><stop offset="1" stop-color="#df2227"/></radialGradient><radialGradient r=".76" cy=".3" cx=".65" id="bd"><stop offset=".65" stop-color="#4cb749"/><stop offset="1" stop-color="#388b41"/></radialGradient><radialGradient r=".8" cy=".25" cx=".36" id="be"><stop offset=".6" stop-color="#FCD209"/><stop offset=".7" stop-color="#f7c616"/><stop offset="1" stop-color="#bc821e"/></radialGradient><radialGradient r="1" cy="0" cx=".5" spreadMethod="pad" id="ba"><stop offset=".1" stop-color="#7FB3DF"/><stop offset=".9" stop-color="#0F5B94"/></radialGradient><radialGradient id="bb" r="1" cy="0" cx=".5"><stop offset="0" stop-color="#F6F0EE"/><stop offset="1" stop-color="#ddd"/></radialGradient></defs><path d="M198 148a70 70 0 0 0-140 0h20a50 50 0 0 1 100 0" fill-opacity=".1"/><circle r="45" cx="127.5" cy="127.6" fill="url(#ba)" stroke="url(#bb)" stroke-width="9"/><path d="M228 78A112 112 0 0 0 35 65l45 78a50 50 0 0 1 47-65" fill="url(#bc)"/><path d="M35 65a112 112 0 0 0 84 174l47-80a50 50 0 0 1-86-16" fill="url(#bd)"/><path d="M119 239A112 112 0 0 0 228 78H127a50 50 0 0 1 39 81" fill="url(#be)"/><path d="M35 65l45 78a50 50 0 0 1 2-34L37 62" opacity=".075"/><path d="M119 239l47-80a50 50 0 0 1-29 17l-20 63M228 78H127a50 50 0 0 1 39 19l64-16" opacity=".05"/></svg><svg width="28" height="27.86" viewBox="0 0 592 589" id="edge" y="28" xmlns="http://www.w3.org/2000/svg"><defs><path d="M295.36 589.765C132.367 589.765.222 457.958.008 295.278v-.391C1.179 140.477 132.267.847 295.389.796 487.644.744 601.642 145.76 591.242 260.915c-2.59 28.682-24.291 116.984-127.866 131.194-10.66 1.462-86.367 3.664-114.684-26.79-10.124-10.888-.031-19.073 1.498-20.558 0 0 21.801-26.297 19.276-50.783-.429-4.144-4.319-69.579-74.002-73.012-40.744-2.007-74.25 32.284-74.25 73.012 0 0-7.517 101.051 117.454 154.078 47.185 20.021 113.607 26.232 184.808-3.925 12.976-5.497 14.665-8.52 20.597-4.001 6.513 4.962.106 13.704.106 13.704-52.504 81.754-144.325 135.931-248.82 135.931z" id="ca"/><path d="M369.466 294.717c1.801 23.671-20.275 50.739-20.275 50.739-1.53 1.483-11.623 9.661-1.5 20.54 28.318 30.427 105.025 28.226 115.685 26.765C566.95 378.565 588.523 290.33 591.242 261.683 602.194 146.318 495.09 121 301.696 121 138.574 120.999 0 132.906 0 295.622c0 162.715 132.237 294.621 295.36 294.621 25.331 0 49.918-3.18 73.381-9.164 0 0-151.955 17.542-206.502-132.959-30.015-82.816 18.54-230.137 133.225-226.35 67.372 2.226 73.685 68.797 74.002 72.947z" id="cd"/><filter x="-5.3%" y="-4.2%" width="110.6%" height="113.4%" filterUnits="objectBoundingBox" id="cc"><feOffset dy="12" in="SourceAlpha" result="shadowOffsetOuter1"/><feGaussianBlur stdDeviation="8.5" in="shadowOffsetOuter1" result="shadowBlurOuter1"/><feColorMatrix values="0 0 0 0 0 0 0 0 0 0 0 0 0 0 0 0 0 0 0.3 0" in="shadowBlurOuter1"/></filter><linearGradient x1="52.028%" y1="41.878%" y2="62.084%" id="cg"><stop stop-color="#32C2F0" offset="0%"/><stop stop-color="#4BD767" offset="100%"/></linearGradient><path d="M349.278 345.677s-11.62 9.674-1.499 20.567c28.31 30.468 105 28.264 115.657 26.801 103.552-14.215 125.119-102.568 127.837-131.25C602.223 146.274 488.807.764 295.458.764 140.087.766 12.741 120.649 1.043 272.878c-.58 7.558 2.855-91.632 129.7-127.47 67.182-18.98 234.034 5.286 238.805 149.465.814 24.613-20.27 50.805-20.27 50.805z" id="cf"/><filter x="-5.3%" y="-5%" width="110.7%" height="116%" filterUnits="objectBoundingBox" id="ce"><feOffset dy="12" in="SourceAlpha" result="shadowOffsetOuter1"/><feGaussianBlur stdDeviation="8.5" in="shadowOffsetOuter1" result="shadowBlurOuter1"/><feColorMatrix values="0 0 0 0 0 0 0 0 0 0 0 0 0 0 0 0 0 0 0.24 0" in="shadowBlurOuter1"/></filter></defs><g transform="translate(0 -.766)" fill="none" fill-rule="evenodd"><mask id="cb" fill="#fff"><use xlink:href="#ca"/></mask><use fill="#114C8E" xlink:href="#ca"/><g mask="url(#cb)"><use fill="#000" filter="url(#cc)" xlink:href="#cd"/><use fill="#037DD6" xlink:href="#cd"/></g><g mask="url(#cb)"><use fill="#000" filter="url(#ce)" xlink:href="#cf"/><use fill="url(#cg)" xlink:href="#cf"/></g></g></svg><svg viewBox="0 0 512 512" width="28" height="28" id="firefox" x="56" xmlns="http://www.w3.org/2000/svg"><defs><linearGradient id="da" x1="87.25%" y1="15.5%" x2="9.4%" y2="93.1%"><stop offset=".05" stop-color="#fff44f"/><stop offset=".37" stop-color="#ff980e"/><stop offset=".53" stop-color="#ff3647"/><stop offset=".7" stop-color="#e31587"/></linearGradient><radialGradient id="db" cx="87.4%" cy="-12.9%" r="128%" gradientTransform="matrix(.8 0 0 1 .178 .129)"><stop offset=".13" stop-color="#ffbd4f"/><stop offset=".28" stop-color="#ff980e"/><stop offset=".47" stop-color="#ff3750"/><stop offset=".78" stop-color="#eb0878"/><stop offset=".86" stop-color="#e50080"/></radialGradient><radialGradient id="dc" cx="49%" cy="40%" r="128%" gradientTransform="matrix(.82 0 0 1 .088 0)"><stop offset=".3" stop-color="#960e18"/><stop offset=".35" stop-color="#b11927" stop-opacity=".74"/><stop offset=".43" stop-color="#db293d" stop-opacity=".34"/><stop offset=".5" stop-color="#f5334b" stop-opacity=".09"/><stop offset=".53" stop-color="#ff3750" stop-opacity="0"/></radialGradient><radialGradient id="dd" cx="48%" cy="-12%" r="140%"><stop offset=".13" stop-color="#fff44f"/><stop offset=".53" stop-color="#ff980e"/></radialGradient><radialGradient id="de" cx="22.76%" cy="110.11%" r="100%"><stop offset=".35" stop-color="#3a8ee6"/><stop offset=".67" stop-color="#9059ff"/><stop offset="1" stop-color="#c139e6"/></radialGradient><radialGradient id="df" cx="52%" cy="33%" r="59%" gradientTransform="scale(.9 1)"><stop offset=".21" stop-color="#9059ff" stop-opacity="0"/><stop offset=".97" stop-color="#6e008b" stop-opacity=".6"/></radialGradient><radialGradient id="dg" cx="210%" cy="-100%" r="290%"><stop offset=".1" stop-color="#ffe226"/><stop offset=".79" stop-color="#ff7139"/></radialGradient><radialGradient id="dh" cx="84%" cy="-41%" r="180%"><stop offset=".11" stop-color="#fff44f"/><stop offset=".46" stop-color="#ff980e"/><stop offset=".72" stop-color="#ff3647"/><stop offset=".9" stop-color="#e31587"/></radialGradient><radialGradient id="di" cx="16.1%" cy="-18.6%" r="348.8%" gradientTransform="scale(1 .47) rotate(84 .279 -.297)"><stop offset="0" stop-color="#fff44f"/><stop offset=".3" stop-color="#ff980e"/><stop offset=".57" stop-color="#ff3647"/><stop offset=".74" stop-color="#e31587"/></radialGradient><radialGradient id="dj" cx="18.9%" cy="-42.5%" r="238.4%"><stop offset=".14" stop-color="#fff44f"/><stop offset=".48" stop-color="#ff980e"/><stop offset=".66" stop-color="#ff3647"/><stop offset=".9" stop-color="#e31587"/></radialGradient><radialGradient id="dk" cx="159.3%" cy="-44.72%" r="313.1%"><stop offset=".09" stop-color="#fff44f"/><stop offset=".63" stop-color="#ff980e"/></radialGradient><linearGradient id="dl" x1="80%" y1="14%" x2="18%" y2="84%"><stop offset=".17" stop-color="#fff44f" stop-opacity=".8"/><stop offset=".6" stop-color="#fff44f" stop-opacity="0"/></linearGradient></defs><path d="M478.711 166.353c-10.445-25.124-31.6-52.248-48.212-60.821 13.52 26.505 21.345 53.093 24.335 72.936 0 .039.015.136.047.4C427.706 111.135 381.627 83.823 344 24.355c-1.9-3.007-3.805-6.022-5.661-9.2a73.716 73.716 0 0 1-2.646-4.972A43.7 43.7 0 0 1 332.1.677a.626.626 0 0 0-.546-.644.818.818 0 0 0-.451 0c-.034.012-.084.051-.12.065-.053.021-.12.069-.176.1.027-.036.083-.117.1-.136-60.37 35.356-80.85 100.761-82.732 133.484a120.249 120.249 0 0 0-66.142 25.488 71.355 71.355 0 0 0-6.225-4.7 111.338 111.338 0 0 1-.674-58.732c-24.688 11.241-43.89 29.01-57.85 44.7h-.111c-9.527-12.067-8.855-51.873-8.312-60.184-.114-.515-7.107 3.63-8.023 4.255a175.073 175.073 0 0 0-23.486 20.12 210.478 210.478 0 0 0-22.442 26.913c0 .012-.007.026-.011.038 0-.013.007-.026.011-.038a202.838 202.838 0 0 0-32.247 72.805c-.115.521-.212 1.061-.324 1.586-.452 2.116-2.08 12.7-2.365 15-.022.177-.032.347-.053.524a229.066 229.066 0 0 0-3.9 33.157c0 .41-.025.816-.025 1.227C16 388.418 123.6 496 256.324 496c118.865 0 217.56-86.288 236.882-199.63.407-3.076.733-6.168 1.092-9.271 4.777-41.21-.53-84.525-15.587-120.746zM201.716 354.447c1.124.537 2.18 1.124 3.334 1.639.048.033.114.07.163.1a126.191 126.191 0 0 1-3.497-1.739zm55.053-144.93zm198.131-30.59l-.032-.233c.012.085.027.174.04.259z" fill="url(#da)"/><path d="M478.711 166.353c-10.445-25.124-31.6-52.248-48.212-60.821 13.52 26.505 21.345 53.093 24.335 72.936 0-.058.011.048.036.226.012.085.027.174.04.259 22.675 61.47 10.322 123.978-7.479 162.175-27.539 59.1-94.215 119.67-198.576 116.716C136.1 454.651 36.766 370.988 18.223 261.41c-3.379-17.28 0-26.054 1.7-40.084-2.071 10.816-2.86 13.94-3.9 33.157 0 .41-.025.816-.025 1.227C16 388.418 123.6 496 256.324 496c118.865 0 217.56-86.288 236.882-199.63.407-3.076.733-6.168 1.092-9.271 4.777-41.21-.53-84.525-15.587-120.746z" fill="url(#db)"/><path d="M478.711 166.353c-10.445-25.124-31.6-52.248-48.212-60.821 13.52 26.505 21.345 53.093 24.335 72.936 0-.058.011.048.036.226.012.085.027.174.04.259 22.675 61.47 10.322 123.978-7.479 162.175-27.539 59.1-94.215 119.67-198.576 116.716C136.1 454.651 36.766 370.988 18.223 261.41c-3.379-17.28 0-26.054 1.7-40.084-2.071 10.816-2.86 13.94-3.9 33.157 0 .41-.025.816-.025 1.227C16 388.418 123.6 496 256.324 496c118.865 0 217.56-86.288 236.882-199.63.407-3.076.733-6.168 1.092-9.271 4.777-41.21-.53-84.525-15.587-120.746z" fill="url(#dc)"/><path d="M361.922 194.6c.524.368 1 .734 1.493 1.1a130.706 130.706 0 0 0-22.31-29.112C266.4 91.892 321.516 4.626 330.811.194c.027-.036.083-.117.1-.136-60.37 35.356-80.85 100.761-82.732 133.484 2.8-.194 5.592-.429 8.442-.429 45.051 0 84.289 24.77 105.301 61.487z" fill="url(#dd)"/><path d="M256.772 209.514c-.393 5.978-21.514 26.593-28.9 26.593-68.339 0-79.432 41.335-79.432 41.335 3.027 34.81 27.261 63.475 56.611 78.643 1.339.692 2.694 1.317 4.05 1.935a132.768 132.768 0 0 0 7.059 2.886 106.743 106.743 0 0 0 31.271 6.031c119.78 5.618 142.986-143.194 56.545-186.408 22.137-3.85 45.115 5.053 57.947 14.067-21.012-36.714-60.25-61.484-105.3-61.484-2.85 0-5.641.235-8.442.429a120.249 120.249 0 0 0-66.142 25.488c3.664 3.1 7.8 7.244 16.514 15.828 16.302 16.067 58.13 32.705 58.219 34.657z" fill="url(#de)"/><path d="M256.772 209.514c-.393 5.978-21.514 26.593-28.9 26.593-68.339 0-79.432 41.335-79.432 41.335 3.027 34.81 27.261 63.475 56.611 78.643 1.339.692 2.694 1.317 4.05 1.935a132.768 132.768 0 0 0 7.059 2.886 106.743 106.743 0 0 0 31.271 6.031c119.78 5.618 142.986-143.194 56.545-186.408 22.137-3.85 45.115 5.053 57.947 14.067-21.012-36.714-60.25-61.484-105.3-61.484-2.85 0-5.641.235-8.442.429a120.249 120.249 0 0 0-66.142 25.488c3.664 3.1 7.8 7.244 16.514 15.828 16.302 16.067 58.13 32.705 58.219 34.657z" fill="url(#df)"/><path d="M170.829 151.036a244.042 244.042 0 0 1 4.981 3.3 111.338 111.338 0 0 1-.674-58.732c-24.688 11.241-43.89 29.01-57.85 44.7 1.155-.033 36.014-.66 53.543 10.732z" fill="url(#dg)"/><path d="M18.223 261.41C36.766 370.988 136.1 454.651 248.855 457.844c104.361 2.954 171.037-57.62 198.576-116.716 17.8-38.2 30.154-100.7 7.479-162.175l-.008-.026-.032-.233c-.025-.178-.04-.284-.036-.226 0 .039.015.136.047.4 8.524 55.661-19.79 109.584-64.051 146.044l-.133.313c-86.245 70.223-168.774 42.368-185.484 30.966a144.108 144.108 0 0 1-3.5-1.743c-50.282-24.029-71.054-69.838-66.6-109.124-42.457 0-56.934-35.809-56.934-35.809s38.119-27.179 88.358-3.541c46.53 21.893 90.228 3.543 90.233 3.541-.089-1.952-41.917-18.59-58.223-34.656-8.713-8.584-12.85-12.723-16.514-15.828a71.355 71.355 0 0 0-6.225-4.7 282.929 282.929 0 0 0-4.981-3.3c-17.528-11.392-52.388-10.765-53.543-10.735h-.111c-9.527-12.067-8.855-51.873-8.312-60.184-.114-.515-7.107 3.63-8.023 4.255a175.073 175.073 0 0 0-23.486 20.12 210.478 210.478 0 0 0-22.442 26.919c0 .012-.007.026-.011.038 0-.013.007-.026.011-.038a202.838 202.838 0 0 0-32.247 72.805c-.115.521-8.65 37.842-4.44 57.199z" fill="url(#dh)"/><path d="M341.105 166.587a130.706 130.706 0 0 1 22.31 29.112c1.323.994 2.559 1.985 3.608 2.952 54.482 50.2 25.936 121.2 23.807 126.26 44.261-36.46 72.575-90.383 64.051-146.044C427.706 111.135 381.627 83.823 344 24.355c-1.9-3.007-3.805-6.022-5.661-9.2a73.716 73.716 0 0 1-2.646-4.972A43.7 43.7 0 0 1 332.1.677a.626.626 0 0 0-.546-.644.818.818 0 0 0-.451 0c-.034.012-.084.051-.12.065-.053.021-.12.069-.176.1-9.291 4.428-64.407 91.694 10.298 166.389z" fill="url(#di)"/><path d="M367.023 198.651c-1.049-.967-2.285-1.958-3.608-2.952-.489-.368-.969-.734-1.493-1.1-12.832-9.014-35.81-17.917-57.947-14.067 86.441 43.214 63.235 192.026-56.545 186.408a106.743 106.743 0 0 1-31.271-6.031 134.51 134.51 0 0 1-7.059-2.886c-1.356-.618-2.711-1.243-4.05-1.935.048.033.114.07.163.1 16.71 11.4 99.239 39.257 185.484-30.966l.133-.313c2.129-5.054 30.675-76.057-23.807-126.258z" fill="url(#dj)"/><path d="M148.439 277.443s11.093-41.335 79.432-41.335c7.388 0 28.509-20.615 28.9-26.593s-43.7 18.352-90.233-3.541c-50.239-23.638-88.358 3.541-88.358 3.541s14.477 35.809 56.934 35.809c-4.453 39.286 16.319 85.1 66.6 109.124 1.124.537 2.18 1.124 3.334 1.639-29.348-15.169-53.582-43.834-56.609-78.644z" fill="url(#dk)"/><path d="M478.711 166.353c-10.445-25.124-31.6-52.248-48.212-60.821 13.52 26.505 21.345 53.093 24.335 72.936 0 .039.015.136.047.4C427.706 111.135 381.627 83.823 344 24.355c-1.9-3.007-3.805-6.022-5.661-9.2a73.716 73.716 0 0 1-2.646-4.972A43.7 43.7 0 0 1 332.1.677a.626.626 0 0 0-.546-.644.818.818 0 0 0-.451 0c-.034.012-.084.051-.12.065-.053.021-.12.069-.176.1.027-.036.083-.117.1-.136-60.37 35.356-80.85 100.761-82.732 133.484 2.8-.194 5.592-.429 8.442-.429 45.053 0 84.291 24.77 105.3 61.484-12.832-9.014-35.81-17.917-57.947-14.067 86.441 43.214 63.235 192.026-56.545 186.408a106.743 106.743 0 0 1-31.271-6.031 134.51 134.51 0 0 1-7.059-2.886c-1.356-.618-2.711-1.243-4.05-1.935.048.033.114.07.163.1a144.108 144.108 0 0 1-3.5-1.743c1.124.537 2.18 1.124 3.334 1.639-29.35-15.168-53.584-43.833-56.611-78.643 0 0 11.093-41.335 79.432-41.335 7.388 0 28.509-20.615 28.9-26.593-.089-1.952-41.917-18.59-58.223-34.656-8.713-8.584-12.85-12.723-16.514-15.828a71.355 71.355 0 0 0-6.225-4.7 111.338 111.338 0 0 1-.674-58.732c-24.688 11.241-43.89 29.01-57.85 44.7h-.111c-9.527-12.067-8.855-51.873-8.312-60.184-.114-.515-7.107 3.63-8.023 4.255a175.073 175.073 0 0 0-23.486 20.12 210.478 210.478 0 0 0-22.435 26.916c0 .012-.007.026-.011.038 0-.013.007-.026.011-.038a202.838 202.838 0 0 0-32.247 72.805c-.115.521-.212 1.061-.324 1.586-.452 2.116-2.486 12.853-2.77 15.156-.022.177.021-.176 0 0a279.565 279.565 0 0 0-3.544 33.53c0 .41-.025.816-.025 1.227C16 388.418 123.6 496 256.324 496c118.865 0 217.56-86.288 236.882-199.63.407-3.076.733-6.168 1.092-9.271 4.777-41.21-.53-84.525-15.587-120.746zm-23.841 12.341c.012.085.027.174.04.259l-.008-.026-.032-.233z" fill="url(#dl)"/></svg><svg height="27.52" width="28" viewBox="0 0 222.64 218.79" id="ie" x="56" y="28" xmlns="http://www.w3.org/2000/svg"><path fill="#1ebbee" d="M218.64 114.33c0-16.968-4.387-32.909-12.08-46.761 32.791-74.213-35.136-63.343-38.918-62.603-14.391 2.816-27.705 7.337-39.986 13.068a97.198 97.198 0 0 0-5.469-.158c-45.833 0-84.198 31.968-94.017 74.823 24.157-27.101 41.063-38.036 51.187-42.412a229.998 229.998 0 0 0-4.754 4.375c-.518.489-1.017.985-1.528 1.477-1.026.987-2.05 1.975-3.05 2.972-.595.593-1.174 1.191-1.76 1.788-.887.903-1.772 1.805-2.638 2.713-.615.645-1.215 1.292-1.819 1.938-.809.866-1.613 1.733-2.402 2.603-.613.676-1.216 1.352-1.818 2.03a267.719 267.719 0 0 0-4.021 4.629c-.693.818-1.377 1.636-2.054 2.454-.599.724-1.196 1.447-1.782 2.17-.634.782-1.254 1.563-1.873 2.343-.6.756-1.2 1.511-1.786 2.266-.558.719-1.1 1.435-1.646 2.152-.616.81-1.237 1.62-1.837 2.426-.429.577-.841 1.148-1.262 1.723a299.19 299.19 0 0 0-10.461 15.235 308.393 308.393 0 0 0-2.41 3.821l-.128.206a303.396 303.396 0 0 0-2.279 3.738l-.079.13a309.829 309.829 0 0 0-5.481 9.506c-8.687 15.743-12.916 26.742-13.099 27.395-27.432 98.072 58.184 56.657 70.131 50.475 12.864 6.355 27.346 9.932 42.666 9.932 41.94 0 77.623-26.771 90.905-64.156h-50.68c-7.499 12.669-21.936 21.25-38.522 21.25-24.301 0-44-18.412-44-41.125h137.96c.523-4.068.794-8.214.794-12.423zm-18.018-94.916c8.306 5.606 14.968 14.41 3.527 44.059-10.973-17.647-27.482-31.49-47.104-39.099 8.926-4.311 31.031-13.429 43.577-4.96zm-176.52 181.24c-6.765-6.938-7.961-23.836 6.967-54.628 7.534 21.661 22.568 39.811 42 51.33-9.664 5.319-35.32 17.295-48.967 3.298zm55.571-100.28c.771-22.075 19.983-39.75 43.588-39.75 23.604 0 42.817 17.675 43.588 39.75H79.673z"/></svg><svg width="28" height="28" viewBox="0 0 872 872" id="ios" xmlns="http://www.w3.org/2000/svg"><g fill="#B3B3B3"><path d="M563.762 139.485c30.387-36.804 50.9-87.98 45.25-138.989-43.773 1.758-96.755 29.181-128.185 65.986-28.137 32.527-52.82 84.633-46.131 134.603 48.818 3.785 98.675-24.85 129.066-61.6M673.318 462.865c-.987-110.14 89.955-163.015 94.069-165.593-51.176-74.87-130.818-85.128-159.23-86.334-67.741-6.857-132.245 39.876-166.581 39.876-34.337 0-87.432-38.89-143.598-37.792-73.939 1.097-142.008 42.948-180.074 109.097-76.736 133.122-19.582 330.419 55.125 438.474 36.585 52.82 80.136 112.333 137.4 110.14 55.179-2.195 76.022-35.654 142.61-35.654 66.589 0 85.348 35.653 143.653 34.611 59.294-1.152 96.921-53.973 133.232-106.958 41.906-61.323 59.238-120.67 60.226-123.797-1.317-.549-115.625-44.374-116.832-176.07"/></g></svg><svg viewBox="0 0 120 120" width="28" height="28" id="opera" x="28" y="55.86" xmlns="http://www.w3.org/2000/svg"><linearGradient id="ga" gradientTransform="matrix(0 97.39658 -97.39658 0 51.62 11.39)" gradientUnits="userSpaceOnUse" x2="1"><stop offset="0" stop-color="#ff1b2d"/><stop offset=".3" stop-color="#ff1b2d"/><stop offset=".61" stop-color="#ff1b2d"/><stop offset="1" stop-color="#a70014"/></linearGradient><linearGradient id="gb" gradientTransform="rotate(90 29.862 46.992) scale(86.14251)" gradientUnits="userSpaceOnUse" x2="1"><stop offset="0" stop-color="#9c0000"/><stop offset=".7" stop-color="#ff4b4b"/><stop offset="1" stop-color="#ff4b4b"/></linearGradient><path d="M60 9.75C32.25 9.75 9.75 32.25 9.75 60c0 26.95 21.22 48.94 47.86 50.19.8.04 1.59.06 2.39.06 12.87 0 24.6-4.84 33.49-12.79-5.89 3.91-12.78 6.15-20.14 6.15-11.97 0-22.68-5.94-29.89-15.3-5.56-6.56-9.15-16.25-9.4-27.13v-2.37c.25-10.88 3.84-20.58 9.4-27.13 7.21-9.36 17.93-15.3 29.89-15.3 7.36 0 14.25 2.25 20.14 6.16-8.84-7.91-20.51-12.74-33.3-12.79H60z" fill="url(#ga)"/><path d="M43.46 31.68c4.61-5.44 10.57-8.73 17.07-8.73 14.63 0 26.49 16.59 26.49 37.04 0 20.46-11.86 37.04-26.49 37.04-6.51 0-12.46-3.28-17.07-8.72 7.21 9.36 17.92 15.3 29.89 15.3 7.36 0 14.25-2.25 20.14-6.15 10.29-9.2 16.76-22.57 16.76-37.46 0-14.88-6.47-28.26-16.76-37.46-5.89-3.91-12.78-6.15-20.14-6.15-11.97 0-22.68 5.94-29.89 15.3" fill="url(#gb)"/></svg><svg width="28" height="27.85" viewBox="0 0 66.166 65.804" id="safari" x="28" y="28" xmlns="http://www.w3.org/2000/svg"><defs><linearGradient id="hb"><stop offset="0" stop-color="#06c2e7"/><stop offset=".25" stop-color="#0db8ec"/><stop offset=".5" stop-color="#12aef1"/><stop offset=".75" stop-color="#1f86f9"/><stop offset="1" stop-color="#107ddd"/></linearGradient><linearGradient id="ha"><stop offset="0" stop-color="#bdbdbd"/><stop offset="1" stop-color="#fff"/></linearGradient><linearGradient xlink:href="#ha" id="hd" x1="412.975" y1="237.608" x2="412.975" y2="59.392" gradientUnits="userSpaceOnUse" gradientTransform="matrix(.35154 0 0 .35154 206.79 159.773)"/><radialGradient xlink:href="#hb" id="he" cx="413.061" cy="136.818" fx="413.061" fy="136.818" r="82.125" gradientUnits="userSpaceOnUse" gradientTransform="matrix(.38143 0 0 .38143 194.545 155.58)"/><filter id="hf" x="-.021" width="1.042" y="-.022" height="1.045" color-interpolation-filters="sRGB"><feGaussianBlur stdDeviation=".958"/></filter><filter id="hc" x="-.048" width="1.096" y="-.048" height="1.096" color-interpolation-filters="sRGB"><feGaussianBlur stdDeviation="3.564"/></filter></defs><path transform="matrix(.33865 0 0 .3261 -106.77 -14.478)" d="M502.083 148.5a89.108 89.108 0 0 1-89.108 89.108 89.108 89.108 0 0 1-89.108-89.108 89.108 89.108 0 0 1 89.108-89.108 89.108 89.108 0 0 1 89.108 89.108z" opacity=".53" stroke-width="2.931" stroke-linecap="round" stroke-linejoin="round" paint-order="markers stroke fill" filter="url(#hc)"/><path d="M383.294 211.977a31.325 31.325 0 0 1-31.325 31.325 31.325 31.325 0 0 1-31.326-31.325 31.325 31.325 0 0 1 31.326-31.325 31.325 31.325 0 0 1 31.325 31.325z" fill="url(#hd)" stroke="#cdcdcd" stroke-width=".093" stroke-linecap="round" stroke-linejoin="round" paint-order="markers stroke fill" transform="translate(-318.886 -180.595)"/><path d="M380.84 211.977a28.87 28.87 0 0 1-28.871 28.87 28.87 28.87 0 0 1-28.871-28.87 28.87 28.87 0 0 1 28.87-28.87 28.87 28.87 0 0 1 28.871 28.87z" fill="url(#he)" stroke-width=".95" stroke-linecap="round" stroke-linejoin="round" paint-order="markers stroke fill" transform="translate(-318.886 -180.595)"/><path d="M33.083 4.017a.42.42 0 0 0-.421.42v4.856a.42.42 0 1 0 .842 0V4.438a.42.42 0 0 0-.421-.421zm-2.754.174a.42.42 0 0 0-.46.463l.212 2.03a.42.42 0 1 0 .837-.087l-.212-2.03a.42.42 0 0 0-.377-.376zm5.527.002a.42.42 0 0 0-.377.375l-.214 2.03a.42.42 0 1 0 .837.089l.214-2.031a.42.42 0 0 0-.46-.463zM27.5 4.6a.42.42 0 0 0-.41.508l1.005 4.75a.42.42 0 1 0 .824-.174l-1.005-4.75A.42.42 0 0 0 27.5 4.6zm11.183.004a.42.42 0 0 0-.414.333l-1.009 4.75a.42.42 0 1 0 .824.175l1.009-4.75a.42.42 0 0 0-.41-.508zm-13.883.757a.42.42 0 0 0-.437.55l.632 1.942a.42.42 0 1 0 .8-.26l-.63-1.942a.42.42 0 0 0-.365-.29zm16.568.001a.42.42 0 0 0-.364.29l-.632 1.942a.42.42 0 1 0 .8.26l.632-1.942a.42.42 0 0 0-.436-.55zM22.13 6.34a.42.42 0 0 0-.377.592l1.972 4.437a.42.42 0 1 0 .77-.342l-1.972-4.437a.42.42 0 0 0-.393-.25zm21.937.015a.42.42 0 0 0-.392.25l-1.978 4.434a.42.42 0 1 0 .769.343l1.978-4.434a.42.42 0 0 0-.377-.593zM19.654 7.65a.42.42 0 0 0-.394.63l1.02 1.77a.42.42 0 1 0 .73-.421L19.989 7.86a.42.42 0 0 0-.335-.21zm26.858 0a.419.419 0 0 0-.335.21l-1.021 1.769a.42.42 0 1 0 .73.42l1.02-1.768a.42.42 0 0 0-.394-.63zm-29.265 1.5a.422.422 0 0 0-.326.669l2.85 3.93a.42.42 0 1 0 .682-.494l-2.85-3.93a.42.42 0 0 0-.356-.174zm31.702.022a.42.42 0 0 0-.356.174l-2.856 3.926a.42.42 0 1 0 .681.495l2.856-3.926a.42.42 0 0 0-.325-.669zm-33.852 1.783a.42.42 0 0 0-.335.702l1.366 1.518a.42.42 0 1 0 .626-.563l-1.367-1.518a.42.42 0 0 0-.29-.14zm35.975.003a.421.421 0 0 0-.29.139l-1.367 1.517a.42.42 0 1 0 .625.564l1.367-1.518a.42.42 0 0 0-.335-.702zm-38.037 1.977a.42.42 0 0 0-.26.733l3.61 3.248a.42.42 0 1 0 .563-.625l-3.609-3.248a.42.42 0 0 0-.304-.108zm40.109.014a.419.419 0 0 0-.304.108l-3.61 3.245a.42.42 0 1 0 .562.626l3.61-3.245a.42.42 0 0 0-.258-.734zm-41.823 2.19a.42.42 0 0 0-.262.762l1.652 1.2a.42.42 0 1 0 .495-.681l-1.652-1.2a.42.42 0 0 0-.233-.081zm43.535.015a.421.421 0 0 0-.233.08l-1.653 1.2a.42.42 0 1 0 .495.681l1.653-1.2a.42.42 0 0 0-.262-.76zM9.72 17.49a.42.42 0 0 0-.18.785l4.204 2.427a.42.42 0 1 0 .42-.729L9.96 17.546a.42.42 0 0 0-.24-.056zm46.728 0a.417.417 0 0 0-.24.056l-4.205 2.427a.42.42 0 1 0 .42.73l4.206-2.428a.42.42 0 0 0-.181-.785zM8.508 19.996a.42.42 0 0 0-.18.806l1.866.831a.42.42 0 1 0 .343-.768l-1.866-.832a.42.42 0 0 0-.163-.037zm49.158.017a.42.42 0 0 0-.164.037l-1.865.83a.42.42 0 1 0 .342.77l1.866-.831a.42.42 0 0 0-.179-.806zM7.429 22.615a.42.42 0 0 0-.094.82l4.615 1.504a.42.42 0 1 0 .261-.8l-4.616-1.504a.421.421 0 0 0-.166-.02zm51.314.018a.408.408 0 0 0-.166.02l-4.617 1.5a.42.42 0 1 0 .26.801l4.617-1.5a.42.42 0 0 0-.094-.82zM6.756 25.365a.42.42 0 0 0-.09.833l1.998.424a.42.42 0 1 0 .175-.823l-1.998-.425a.413.413 0 0 0-.085-.009zm52.655.004a.518.518 0 0 0-.085.009l-1.998.424a.42.42 0 1 0 .175.823l1.998-.424a.42.42 0 0 0-.09-.833zM6.247 28.13a.42.42 0 0 0-.003.838l4.828.51a.42.42 0 1 0 .089-.837l-4.829-.51a.432.432 0 0 0-.085 0zm53.676.037a.386.386 0 0 0-.085 0l-4.83.504a.42.42 0 1 0 .088.837l4.83-.504a.42.42 0 0 0-.003-.837zM6.165 30.96a.42.42 0 1 0 0 .842h2.043a.42.42 0 1 0 0-.842zm51.793 0a.42.42 0 1 0 0 .842h2.043a.42.42 0 1 0 0-.842zm-46.803 2.295a.384.384 0 0 0-.085 0l-4.83.504a.42.42 0 1 0 .088.838l4.83-.504a.42.42 0 0 0-.003-.838zm43.853.03a.42.42 0 0 0-.003.838l4.828.51a.42.42 0 1 0 .089-.837l-4.828-.51a.434.434 0 0 0-.086-.001zm-46.26 2.843a.43.43 0 0 0-.085.01l-1.998.424a.42.42 0 1 0 .175.823l1.998-.424a.42.42 0 0 0-.09-.833zm48.67.005a.42.42 0 0 0-.09.833l1.997.424a.42.42 0 1 0 .175-.824l-1.998-.424a.413.413 0 0 0-.085-.01zM12.111 37.79a.408.408 0 0 0-.166.02l-4.617 1.5a.42.42 0 1 0 .26.801l4.617-1.5a.42.42 0 0 0-.094-.82zm41.937.015a.42.42 0 0 0-.094.82l4.616 1.504a.42.42 0 1 0 .26-.8l-4.615-1.504a.421.421 0 0 0-.167-.02zM10.35 41.08a.42.42 0 0 0-.163.036l-1.866.831a.42.42 0 1 0 .342.769l1.866-.83a.42.42 0 0 0-.179-.806zm45.459.016a.42.42 0 0 0-.18.805l1.865.832a.42.42 0 1 0 .343-.769l-1.865-.832a.42.42 0 0 0-.163-.036zm-41.826.912a.417.417 0 0 0-.24.056L9.538 44.49a.42.42 0 1 0 .421.73l4.205-2.428a.42.42 0 0 0-.181-.785zm38.2 0a.42.42 0 0 0-.181.785l4.205 2.427a.42.42 0 1 0 .42-.729l-4.204-2.427a.42.42 0 0 0-.24-.056zm-39.249 3.562a.421.421 0 0 0-.233.08l-1.653 1.2a.42.42 0 1 0 .495.682l1.653-1.2a.42.42 0 0 0-.262-.762zm40.288.015a.42.42 0 0 0-.262.762l1.652 1.2a.42.42 0 1 0 .495-.681l-1.652-1.2a.42.42 0 0 0-.233-.081zm-36.544.145a.418.418 0 0 0-.304.108l-3.61 3.245a.42.42 0 1 0 .562.626l3.61-3.245a.42.42 0 0 0-.258-.734zm32.8.011a.421.421 0 0 0-.26.734l3.609 3.248a.42.42 0 1 0 .563-.625l-3.608-3.249a.42.42 0 0 0-.304-.107zm-29.375 3.084a.42.42 0 0 0-.355.173l-2.856 3.927a.42.42 0 1 0 .68.495l2.857-3.926a.42.42 0 0 0-.326-.669zm25.936.018a.421.421 0 0 0-.326.668l2.85 3.93a.42.42 0 1 0 .682-.494l-2.851-3.93a.42.42 0 0 0-.355-.174zm-29.623.606a.421.421 0 0 0-.29.14l-1.367 1.517a.42.42 0 1 0 .625.563l1.367-1.517a.42.42 0 0 0-.335-.703zm33.331.002a.42.42 0 0 0-.335.702l1.366 1.518a.42.42 0 1 0 .626-.563l-1.366-1.518a.42.42 0 0 0-.291-.139zm-25.655 1.684a.419.419 0 0 0-.393.25l-1.978 4.433a.42.42 0 1 0 .77.343l1.977-4.434a.42.42 0 0 0-.376-.592zm17.955.012a.42.42 0 0 0-.377.592l1.972 4.437a.42.42 0 1 0 .77-.342l-1.972-4.437a.42.42 0 0 0-.393-.25zm-21.431 1.359a.419.419 0 0 0-.335.21l-1.021 1.768a.42.42 0 1 0 .729.421l1.02-1.769a.42.42 0 0 0-.393-.63zm24.934 0a.42.42 0 0 0-.394.63l1.021 1.77a.42.42 0 1 0 .73-.422l-1.022-1.769a.42.42 0 0 0-.335-.21zm-17.054.063a.42.42 0 0 0-.415.334l-1.009 4.749a.42.42 0 1 0 .824.175l1.009-4.75a.42.42 0 0 0-.41-.508zm9.16.003a.42.42 0 0 0-.41.508l1.006 4.75a.42.42 0 1 0 .823-.175l-1.006-4.75a.42.42 0 0 0-.414-.333zm-4.573.48a.42.42 0 0 0-.421.42v4.855a.42.42 0 1 0 .842 0v-4.855a.42.42 0 0 0-.421-.42zm-7.727 1.568a.42.42 0 0 0-.364.29l-.631 1.942a.42.42 0 1 0 .8.26l.632-1.942a.42.42 0 0 0-.437-.55zm15.45 0a.42.42 0 0 0-.437.55l.632 1.943a.42.42 0 1 0 .8-.26l-.63-1.942a.42.42 0 0 0-.365-.29zm-10.365 1.083a.42.42 0 0 0-.378.375l-.213 2.03a.42.42 0 1 0 .837.088l.214-2.03a.42.42 0 0 0-.46-.463zm5.267.002a.42.42 0 0 0-.46.463l.212 2.03a.42.42 0 1 0 .837-.088l-.212-2.03a.42.42 0 0 0-.377-.375z" fill="#f4f2f3" stroke-width=".381" stroke-linecap="round" stroke-linejoin="round" paint-order="markers stroke fill"/><path transform="matrix(.35154 0 0 .35154 -112.095 -20.822)" d="M469.096 100.607l-65.51 38.061-41.42 65.207 60.595-44.882z" opacity=".409" stroke-width="1.561" stroke-linecap="round" stroke-linejoin="round" paint-order="markers stroke fill" filter="url(#hf)"/><path d="M36.383 34.838l-6.6-6.913 23.416-15.752z" fill="#ff5150" stroke-width="1.02" stroke-linecap="round" stroke-linejoin="round" paint-order="markers stroke fill"/><path d="M36.383 34.838l-6.6-6.913L12.966 50.59z" fill="#f1f1f1" stroke-width="1.02" stroke-linecap="round" stroke-linejoin="round" paint-order="markers stroke fill"/><path d="M12.967 50.59l23.416-15.752L53.2 12.173z" opacity=".243" stroke-width=".093"/></svg><svg viewBox="0 0 512 512" width="28" height="28" id="windows" x="56" y="55.86" xmlns="http://www.w3.org/2000/svg"><g fill="#00bcd4"><path d="M224 240V52L0 80v160zM256 240h256V16L256 48zM256 272v192l256 32V272zM224 272H0v160l224 28z"/></g></svg><svg viewBox="0 0 512 512" width="28" height="28" id="winphone" x="84" xmlns="http://www.w3.org/2000/svg"><g fill="#662278"><path d="M224 240V52L0 80v160zM256 240h256V16L256 48zM256 272v192l256 32V272zM224 272H0v160l224 28z"/></g></svg><svg width="28" height="28" version="1.2" viewBox="0 0 853.333 853.333" id="yandex" x="84" y="28" xmlns="http://www.w3.org/2000/svg"><defs><linearGradient gradientUnits="userSpaceOnUse" x1="128" x2="128" y2="256" id="ka"><stop offset="0" stop-color="#f5f5f6"/><stop offset="1" stop-color="#ededee"/></linearGradient><linearGradient xlink:href="#ka" id="kc" gradientUnits="userSpaceOnUse" x1="128" x2="128" y2="256"/><linearGradient xlink:href="#ka" id="kb" gradientUnits="userSpaceOnUse" x1="128" x2="128" y2="256"/></defs><g fill-rule="evenodd" stroke-linecap="square" stroke-linejoin="bevel"><path d="M256 128c0 70.692-57.308 128-128 128C57.308 256 0 198.692 0 128 0 57.308 57.308 0 128 0c70.692 0 128 57.308 128 128" fill="url(#kc)" transform="matrix(3.125 0 0 3.125 0 0)"/><path d="M780.625 400c0 210.212-170.413 380.625-380.625 380.625-210.213 0-380.625-170.413-380.625-380.625C19.375 189.787 189.787 19.375 400 19.375c210.212 0 380.625 170.412 380.625 380.625" fill="#fff"/><path d="M657.5 235L443.437 444.375v260.312c0 4.688-20.312 8.438-43.437 8.75-22.188-.312-43.438-4.062-43.438-8.75V444.375L142.5 235c-3.438-3.438 7.5-19.688 24.375-36.563 16.875-16.875 33.437-27.812 36.562-24.375l196.25 191.563 196.25-191.563c3.438-3.437 19.688 7.5 36.563 24.375 16.875 16.875 28.125 33.125 25 36.563" fill="#ec1c24"/></g></svg></svg>