<?xml version="1.0" standalone="no"?>
<!DOCTYPE svg PUBLIC "-//W3C//DTD SVG 20010904//EN"
 "http://www.w3.org/TR/2001/REC-SVG-20010904/DTD/svg10.dtd">
<svg version="1.0" xmlns="http://www.w3.org/2000/svg"
 width="114.000000pt" height="114.000000pt" viewBox="0 0 114.000000 114.000000"
 preserveAspectRatio="xMidYMid meet">
<metadata>
Created by potrace 1.11, written by Peter Selinger 2001-2013
</metadata>
<g transform="translate(0.000000,114.000000) scale(0.100000,-0.100000)"
fill="#000000" stroke="none">
<path d="M0 570 l0 -570 570 0 570 0 0 570 0 570 -570 0 -570 0 0 -570z m700
-65 l-110 -111 50 -49 50 -49 -32 -33 -32 -33 -143 142 c-79 79 -143 148 -143
153 0 6 47 58 105 115 l106 104 -46 46 c-25 25 -45 50 -45 55 0 5 12 22 27 37
l27 29 148 -148 148 -148 -110 -110z m92 388 c10 -9 18 -21 18 -27 0 -6 -7 -1
-15 11 -8 12 -28 24 -43 26 -25 4 -25 4 -3 6 14 0 33 -6 43 -16z m-85 -23 c-7
-17 -13 -26 -15 -21 -3 10 15 51 22 51 3 0 -1 -14 -7 -30z m30 -37 c-3 -10 -5
-2 -5 17 0 19 2 27 5 18 2 -10 2 -26 0 -35z m35 25 c-6 -6 -8 -18 -5 -27 4
-13 3 -14 -5 -1 -7 9 -7 19 -2 26 6 6 6 15 2 19 -4 5 -1 5 6 0 9 -5 10 -11 4
-17z m24 -46 c-17 -16 -18 -16 -5 5 7 12 15 20 18 17 3 -2 -3 -12 -13 -22z
m-82 2 c3 -8 2 -12 -4 -9 -6 3 -10 10 -10 16 0 14 7 11 14 -7z m49 -21 c-7 -2
-19 -2 -25 0 -7 3 -2 5 12 5 14 0 19 -2 13 -5z"/>
<path d="M542 597 l-72 -73 30 -29 31 -29 72 72 72 72 -30 30 -30 30 -73 -73z"/>
</g>
</svg>
